# xmcd CD database file
#
# Track frame offsets:
#	150
#	18077
#	29525
#	43170
#
# Disc length: 792 seconds
#
# Revision: 0
# Processed by: cddbd v1.4PL0 Copyright (c) Steve Scherf et al.
# Submitted via: CDex 1.40Beta9
#
DISCID=29031604
DTITLE=Troy Cassar-Daley - They Don't Make 'em Like That Anymore
DYEAR=1900
DGENRE=Country
TTITLE0=They Don't Make 'em Like That Anymore
TTITLE1=Wet A Line
TTITLE2=That's Why I'm Your Friend
TTITLE3=If You Ever Think Of Me
EXTD=ID3G: 2
EXTT0=
EXTT1=
EXTT2=
EXTT3=
PLAYORDER=
